<svg xmlns="http://www.w3.org/2000/svg" viewBox="0 0 64 64">
  <!-- Fondo -->
  <rect width="64" height="64" fill="#1a1a1a" rx="8"/>
  
  <!-- Caja del camión -->
  <rect x="8" y="22" width="28" height="20" fill="#dc2626" rx="2"/>
  <rect x="8" y="22" width="28" height="4" fill="#991b1b"/>
  
  <!-- Cabina del camión -->
  <path d="M 36 28 L 36 42 L 50 42 L 50 34 L 44 28 Z" fill="#dc2626"/>
  <path d="M 36 28 L 36 32 L 50 32 L 50 34 L 44 28 Z" fill="#991b1b"/>
  
  <!-- Ventana de la cabina -->
  <rect x="38" y="30" width="6" height="6" fill="#3d3d3d" rx="1"/>
  
  <!-- Ruedas -->
  <circle cx="16" cy="44" r="5" fill="#2d2d2d"/>
  <circle cx="16" cy="44" r="3" fill="#4a4a4a"/>
  <circle cx="32" cy="44" r="5" fill="#2d2d2d"/>
  <circle cx="32" cy="44" r="3" fill="#4a4a4a"/>
  <circle cx="46" cy="44" r="5" fill="#2d2d2d"/>
  <circle cx="46" cy="44" r="3" fill="#4a4a4a"/>
  
  <!-- Detalles -->
  <rect x="12" y="26" width="4" height="3" fill="#f0f0f0" opacity="0.3" rx="0.5"/>
  <rect x="20" y="26" width="4" height="3" fill="#f0f0f0" opacity="0.3" rx="0.5"/>
  <rect x="28" y="26" width="4" height="3" fill="#f0f0f0" opacity="0.3" rx="0.5"/>
  
  <!-- Faro delantero -->
  <circle cx="48" cy="36" r="1.5" fill="#fbbf24"/>
</svg>
